<mxfile host="app.diagrams.net" modified="2025-01-07T00:49:51.369Z" agent="Mozilla/5.0 (Windows NT 10.0; Win64; x64) AppleWebKit/537.36 (KHTML, like Gecko) Chrome/131.0.0.0 Safari/537.36" version="24.6.5" etag="JNW0VCRy2rxdf3nwNfwm" type="github">
  <diagram name="Page-1" id="ibliABFwItxwWDU6BGT-">
    <mxGraphModel>
      <root>
        <mxCell id="0" />
        <mxCell id="1" parent="0" />
      </root>
    </mxGraphModel>
  </diagram>
</mxfile>
